<?xml version="1.0" encoding="iso-8859-1"?>
<!-- Generator: Adobe Illustrator 16.0.0, SVG Export Plug-In . SVG Version: 6.00 Build 0)  -->
<!DOCTYPE svg PUBLIC "-//W3C//DTD SVG 1.1//EN" "http://www.w3.org/Graphics/SVG/1.1/DTD/svg11.dtd">
<svg version="1.1" id="Ebene_1" xmlns="http://www.w3.org/2000/svg" xmlns:xlink="http://www.w3.org/1999/xlink" x="0px" y="0px"
	 width="79.37px" height="79.37px" viewBox="0 0 79.37 79.37" style="enable-background:new 0 0 79.37 79.37;" xml:space="preserve"
	>
<g>
	<g>
		<path style="fill:#ffffff;" d="M58.528,46.461c1.969,0.751,3.586,1.993,4.852,3.727c1.266,1.736,1.898,3.681,1.898,5.836
			c0,2.812-1.008,5.228-3.023,7.242c-2.018,2.017-4.43,3.023-7.242,3.023c-0.094,0-0.234,0-0.422,0H21.263
			c-3.75,0-6.961-1.336-9.633-4.008s-4.008-5.882-4.008-9.633c0-3.562,1.217-6.609,3.656-9.141c2.061-2.25,4.592-3.656,7.594-4.219
			c1.406-4.03,3.889-7.334,7.453-9.914c3.562-2.577,7.5-3.867,11.812-3.867c5.625,0,10.428,1.993,14.414,5.977
			c3.984,3.986,5.977,8.789,5.977,14.414C58.528,46.087,58.528,46.274,58.528,46.461z M55.013,62.773
			c1.875,0,3.492-0.655,4.852-1.969c1.357-1.312,2.039-2.905,2.039-4.781c0-1.593-0.516-3.023-1.547-4.289
			c-1.033-1.266-2.344-2.039-3.938-2.32l-1.547-0.281l0.141-1.547c0-0.562,0-1.125,0-1.688c0-4.687-1.641-8.67-4.922-11.953
			c-3.283-3.28-7.266-4.922-11.953-4.922c-3.75,0-7.15,1.149-10.195,3.445c-3.047,2.298-5.086,5.228-6.117,8.789l-0.281,1.266
			h-1.266c-2.531,0.281-4.711,1.384-6.539,3.305c-1.828,1.923-2.742,4.197-2.742,6.82c0,2.812,1.006,5.203,3.023,7.172
			c2.016,1.969,4.43,2.953,7.242,2.953h33.328h0.141C54.823,62.773,54.919,62.773,55.013,62.773z"/>
	</g>
	<g>
		<path style="fill:#ffffff;" d="M42.216,17.722l2.391,2.391c0.562,0.562,0.584,1.125,0.07,1.688c-0.516,0.562-1.055,0.562-1.617,0
			l-2.391-2.391c-0.562-0.562-0.586-1.125-0.07-1.688C41.112,17.159,41.653,17.159,42.216,17.722z M53.044,20.675
			c2.904-0.092,5.414,0.798,7.523,2.672c2.109,1.876,3.256,4.267,3.445,7.172c0.092,3.188-1.033,5.906-3.375,8.156
			c-0.189,0.281-0.516,0.422-0.984,0.422c-0.752,0.095-1.174-0.281-1.266-1.125c0-0.468,0.188-0.844,0.562-1.125
			c1.875-1.688,2.719-3.749,2.531-6.188c-0.094-2.25-0.963-4.1-2.602-5.555c-1.641-1.452-3.539-2.085-5.695-1.898
			c-1.406,0-2.672,0.376-3.797,1.125c-0.189,0.281-0.471,0.422-0.844,0.422c-0.844,0.095-1.266-0.281-1.266-1.125
			c-0.094-0.468,0.092-0.844,0.562-1.125C49.435,21.378,51.167,20.77,53.044,20.675z M52.622,17.581v-3.375
			c0-0.749,0.373-1.125,1.125-1.125c0.75,0,1.125,0.376,1.125,1.125v3.375c0,0.751-0.375,1.125-1.125,1.125
			C52.995,18.706,52.622,18.333,52.622,17.581z M64.013,21.8c-0.562,0.562-1.104,0.562-1.617,0c-0.516-0.562-0.541-1.125-0.07-1.688
			l2.391-2.391c0.562-0.562,1.125-0.562,1.688,0s0.562,1.125,0,1.688L64.013,21.8z M64.013,39.519l2.391,2.391
			c0.562,0.562,0.562,1.103,0,1.617c-0.562,0.517-1.125,0.492-1.688-0.07l-2.391-2.391c-0.471-0.468-0.445-0.984,0.07-1.547
			C62.909,38.956,63.45,38.956,64.013,39.519z M70.622,29.534c0.75,0,1.125,0.376,1.125,1.125c0,0.751-0.375,1.125-1.125,1.125
			h-3.516c-0.752,0-1.125-0.374-1.125-1.125c0-0.749,0.373-1.125,1.125-1.125H70.622z"/>
	</g>
</g>
</svg>
