<?xml version="1.0" encoding="iso-8859-1"?>
<!-- Generator: Adobe Illustrator 16.0.0, SVG Export Plug-In . SVG Version: 6.00 Build 0)  -->
<!DOCTYPE svg PUBLIC "-//W3C//DTD SVG 1.1//EN" "http://www.w3.org/Graphics/SVG/1.1/DTD/svg11.dtd">
<svg version="1.1" id="Ebene_1" xmlns="http://www.w3.org/2000/svg" xmlns:xlink="http://www.w3.org/1999/xlink" x="0px" y="0px"
	 width="79.369px" height="79.37px" viewBox="0 0 79.369 79.37" style="enable-background:new 0 0 79.369 79.37;"
	 xml:space="preserve">
<g>
	<g>
		<path style="fill:#ffffff;" d="M64.153,43.855c0,2.439-0.844,4.5-2.531,6.188s-3.704,2.532-6.047,2.532c-0.188,0-0.376,0-0.562,0
			h-3.234c-0.095,0-0.188,0-0.281,0c-0.844-0.187-1.266-0.655-1.266-1.407c0-0.467,0.141-0.843,0.422-1.125
			c0.281-0.28,0.608-0.421,0.984-0.421h0.141h3.375c0.187,0,0.327,0,0.422,0c1.499,0,2.812-0.562,3.938-1.688
			s1.688-2.483,1.688-4.079c0-1.311-0.422-2.506-1.266-3.585c-0.844-1.077-1.969-1.758-3.375-2.04l-1.266-0.141l0.141-1.405
			c0.093-0.468,0.141-0.937,0.141-1.407c0-3.938-1.406-7.312-4.219-10.125s-6.235-4.218-10.266-4.218
			c-3.188,0-6.071,0.962-8.648,2.883c-2.579,1.923-4.289,4.43-5.133,7.522l-0.281,0.985l-0.984,0.14
			c-2.25,0.189-4.126,1.104-5.625,2.743c-1.501,1.642-2.25,3.585-2.25,5.835c0,1.877,0.562,3.587,1.688,5.134
			c1.125,1.546,2.577,2.601,4.359,3.163c0.844,0.095,1.266,0.562,1.266,1.407c0,0.375-0.141,0.703-0.422,0.983
			c-0.281,0.282-0.657,0.422-1.125,0.422c-0.188,0-0.376-0.045-0.562-0.14c-2.345-0.655-4.289-2.016-5.836-4.078
			c-1.547-2.062-2.32-4.359-2.32-6.892c0-2.998,1.03-5.625,3.094-7.875c1.78-1.873,3.938-3.045,6.469-3.516
			c1.218-3.467,3.327-6.279,6.328-8.438c2.999-2.155,6.328-3.234,9.984-3.234c4.781,0,8.859,1.688,12.234,5.062
			s5.062,7.454,5.062,12.234c0,0.189,0,0.33,0,0.423c1.688,0.657,3.069,1.735,4.148,3.234
			C63.613,40.435,64.153,42.076,64.153,43.855z"/>
	</g>
	<g>
		<path style="fill:#ffffff;" d="M34.859,49.577c0.749,0.844,0.89,2.391,0.422,4.641c-0.471,2.25-1.079,3.983-1.828,5.203
			c-0.562,0.937-1.36,1.547-2.391,1.828c-1.033,0.281-2.018,0.141-2.953-0.422c-0.938-0.562-1.547-1.384-1.828-2.461
			c-0.281-1.079-0.141-2.085,0.422-3.023c0.749-1.125,2.085-2.482,4.008-4.078C32.631,49.672,34.016,49.109,34.859,49.577z
			 M42.055,60.027c-1.079,0.235-2.063,0.07-2.953-0.492c-0.893-0.562-1.477-1.357-1.758-2.39c-0.281-1.03-0.141-2.016,0.422-2.953
			c0.749-1.218,2.085-2.603,4.008-4.149c1.92-1.547,3.305-2.084,4.148-1.617c0.654,0.845,0.749,2.392,0.281,4.642
			c-0.471,2.25-1.033,3.985-1.688,5.203C43.953,59.209,43.131,59.795,42.055,60.027z"/>
	</g>
</g>
</svg>
